# xmcd CD database file
#
# Track frame offsets:
#	150
#	13290
#	26207
#	41279
#	54033
#	78436
#	93555
#	107141
#	121507
#	136013
#
# Disc length: 2016 seconds
#
# Revision: 0
# Processed by: cddbd v1.5.2PL0 Copyright (c) Steve Scherf et al.
# Submitted via: CDex 1.70beta2
#
DISCID=7107de0a
DTITLE=Lionel Hampton - Flying Home CD8
DYEAR=2008
DGENRE=Jazz
TTITLE0=1 Rockin’ In Rhythm - Part 1  (Ellington/Carney/Mills)
TTITLE1=2 Rockin’ In Rhythm - Part 2  (Ellington/Carney/Mills)
TTITLE2=3 The Sheik Of Araby  (Smith/Wheeler/Snyder)
TTITLE3=4 You Stepped Out Of A Dream (Brown/Kahn)
TTITLE4=5 Mr. PC  (Lambert/Hendricks/Ross)
TTITLE5=6 Playboy  (Hampton/Mackel)
TTITLE6=7 Sweethearts On Parade (Lombardo/Newman)
TTITLE7=8 Two Finger Boogie (Gene Rodgers)
TTITLE8=9 Hamp’s Salty Blues   (Burley/Hampton)
TTITLE9=10 In The Bag  (R. Crowder/L. Hampton)
EXTD=YEAR: 2008
EXTT0=
EXTT1=
EXTT2=
EXTT3=
EXTT4=
EXTT5=
EXTT6=
EXTT7=
EXTT8=
EXTT9=
PLAYORDER=
